<?xml version="1.0" encoding="UTF-8" standalone="no"?>
<!-- Created with Inkscape (http://www.inkscape.org/) -->

<svg
   width="326.64545mm"
   height="120.04597mm"
   viewBox="0 0 326.64545 120.04597"
   version="1.1"
   id="svg5"
   inkscape:version="1.1.2 (0a00cf5339, 2022-02-04)"
   sodipodi:docname="pokeapi-font.svg"
   xmlns:inkscape="http://www.inkscape.org/namespaces/inkscape"
   xmlns:sodipodi="http://sodipodi.sourceforge.net/DTD/sodipodi-0.dtd"
   xmlns="http://www.w3.org/2000/svg"
   xmlns:svg="http://www.w3.org/2000/svg">
  <sodipodi:namedview
     id="namedview7"
     pagecolor="#505050"
     bordercolor="#ffffff"
     borderopacity="1"
     inkscape:pageshadow="0"
     inkscape:pageopacity="0"
     inkscape:pagecheckerboard="1"
     inkscape:document-units="mm"
     showgrid="false"
     inkscape:zoom="0.89071844"
     inkscape:cx="787.00515"
     inkscape:cy="185.24372"
     inkscape:window-width="2560"
     inkscape:window-height="1048"
     inkscape:window-x="1920"
     inkscape:window-y="0"
     inkscape:window-maximized="1"
     inkscape:current-layer="layer1" />
  <defs
     id="defs2" />
  <g
     inkscape:label="Layer 1"
     inkscape:groupmode="layer"
     id="layer1"
     transform="translate(74.86885,-210.55363)">
    <g
       id="g1163"
       transform="matrix(0.73935798,0,0,0.73935798,-33.91304,147.80238)"
       style="stroke:#000000;stroke-width:0.987069;stroke-miterlimit:4;stroke-dasharray:none;stroke-opacity:1">
      <path
         style="fill:#fdca02;stroke:#000000;stroke-width:0.987069;stroke-miterlimit:4;stroke-dasharray:none;stroke-opacity:1"
         d="m 293.18915,222.59737 c -0.23301,-0.1819 -5.67051,-12.59417 -12.08332,-27.58282 l -11.65965,-27.25208 -5.57746,-0.89739 c -3.23761,-0.52092 -5.66973,-0.79841 -5.7974,-0.66146 -0.12095,0.12976 -4.71808,9.80236 -10.21584,21.49465 -5.49775,11.6923 -10.16285,21.42566 -10.36688,21.62969 -0.20403,0.20403 -0.80895,0.37543 -1.34426,0.38087 -0.53531,0.005 -6.56923,0.29139 -13.4087,0.63542 -10.97269,0.55195 -12.50727,0.57999 -13.04628,0.2384 -0.43826,-0.27774 -0.58778,-0.58811 -0.52917,-1.09845 0.0934,-0.81356 54.77588,-110.136446 55.40312,-110.763691 0.60096,-0.600959 1.6204,-0.510143 2.06712,0.184147 0.64021,0.995034 49.9,120.009564 49.9,120.561324 0,0.45203 -0.62942,1.34545 -0.94788,1.34545 -0.064,0 -4.93572,0.47625 -10.82608,1.05833 -5.89036,0.58209 -10.80737,1.05834 -10.9267,1.05834 -0.11932,0 -0.4076,-0.14883 -0.64062,-0.33073 z m -25.17919,-70.77605 c -0.0755,-0.25466 -0.81743,-3.17205 -1.64863,-6.48309 -0.83119,-3.31103 -1.53835,-5.98994 -1.57146,-5.95312 -0.1534,0.17054 -4.6197,11.65997 -4.55588,11.71986 0.0399,0.0374 1.73935,0.3036 3.77665,0.59153 2.03729,0.28793 3.80148,0.53799 3.92043,0.55568 0.11895,0.0177 0.15445,-0.17619 0.0789,-0.43086 z m 82.36255,52.6886 c -0.28125,-0.33888 -0.47498,-5.83462 -0.94301,-26.75157 -0.32396,-14.47879 -0.64632,-26.38236 -0.71634,-26.45238 -0.07,-0.07 -1.47565,0.17538 -3.12364,0.54534 -2.69158,0.60423 -3.05696,0.63293 -3.5923,0.28216 -0.32778,-0.21477 -0.59506,-0.65564 -0.59397,-0.9797 10e-4,-0.32407 0.41773,-2.73234 0.92586,-5.35172 0.50812,-2.61937 0.92395,-4.84823 0.92405,-4.95301 1e-4,-0.10479 -1.19023,1.10603 -2.64519,2.6907 -2.49599,2.71852 -11.42469,11.43716 -11.87591,11.59651 -0.11491,0.0406 1.79696,7.12481 4.24859,15.74271 2.45164,8.61791 4.42648,15.9009 4.38855,16.18443 -0.0774,0.57872 -13.79527,10.70161 -14.52561,10.71898 -0.23853,0.006 -0.66947,-0.19805 -0.95763,-0.45271 -0.34679,-0.30648 -4.21828,-11.06288 -11.45141,-31.81615 -6.01012,-17.24422 -11.03507,-31.65078 -11.16655,-32.01458 -0.23378,-0.64683 -0.28159,-0.61612 -2.16232,1.38906 -1.97923,2.1102 -2.21012,2.24337 -3.08137,1.77709 -0.78273,-0.4189 -1.25435,-1.53024 -4.85746,-11.44614 -1.83984,-5.06332 -3.63898,-9.8704 -3.99808,-10.6824 -0.75885,-1.7159 -0.80721,-2.27677 -0.24481,-2.83918 0.22447,-0.22447 3.34986,-1.3558 6.94532,-2.51406 21.48321,-6.92075 31.23626,-8.763 42.52052,-8.03168 2.47386,0.16033 5.20013,0.48245 6.05839,0.71582 2.12573,0.57801 5.1863,1.82442 6.47053,2.63513 l 1.06015,0.66924 0.4477,-1.38071 c 1.59194,-4.909524 4.7209,-7.691424 9.03743,-8.035008 3.89172,-0.309771 8.31428,1.347979 11.42512,4.282598 2.52726,2.38409 3.28136,3.88278 3.42164,6.80018 0.0938,1.95069 0.004,2.65332 -0.57424,4.49792 -1.23125,3.92704 -3.76035,7.38467 -6.18657,8.45791 -0.97494,0.43126 -1.82754,0.54532 -4.28247,0.57291 -1.68584,0.0189 -3.54376,-0.0519 -4.12871,-0.15737 l -1.06353,-0.19183 -0.49759,1.73749 c -0.96853,3.38186 -3.14966,7.22342 -6.85516,12.07376 -0.97276,1.2733 -1.71529,2.3151 -1.65007,2.3151 0.0652,0 5.36494,-2.20265 11.77714,-4.89479 6.4122,-2.69214 11.87761,-4.89479 12.14536,-4.89479 1.35463,0 1.22591,-1.617 2.92811,36.78507 0.87381,19.71368 1.63748,36.65265 1.69703,37.64214 0.18505,3.07509 0.97227,2.83046 -11.36223,3.53087 -13.0199,0.73933 -13.43013,0.74514 -13.88532,0.19666 z m -21.6189,-71.77147 c 3.08375,-3.6609 5.33076,-7.17378 4.87818,-7.62635 -0.38275,-0.38275 -5.50012,-0.37592 -7.53302,0.0101 -2.42934,0.46125 -5.95448,1.93897 -5.77032,2.41889 0.16674,0.43453 3.08115,10.95339 3.08115,11.12068 0,0.19563 2.86024,-2.97465 5.34401,-5.92328 z"
         id="path1175" />
      <path
         style="fill:#3769b9;stroke:#000000;stroke-width:0.987069;stroke-miterlimit:4;stroke-dasharray:none;stroke-opacity:1"
         d="m 290.46551,232.77092 c -2.07917,-0.71896 -3.63127,-1.74899 -5.21806,-3.46292 -1.44346,-1.55911 -1.61243,-1.92787 -11.75505,-25.6554 l -10.29053,-24.07355 -7.90472,16.84587 c -4.3476,9.26524 -8.24841,17.39972 -8.66847,18.07662 -1.52757,2.46158 -3.87643,4.22057 -6.78899,5.08405 -2.19269,0.65006 -29.47928,1.95008 -31.63754,1.50731 -7.07665,-1.45177 -11.31436,-8.95465 -8.83355,-15.63981 0.19156,-0.5162 12.88653,-25.96649 28.21105,-56.55621 31.26823,-62.41542 28.71354,-57.757976 32.78506,-59.770228 1.7692,-0.874386 2.25709,-0.993785 4.45339,-1.089843 3.15534,-0.138004 5.46041,0.506996 7.69341,2.152752 2.45504,1.80941 2.97744,2.626986 5.41821,8.479766 0.84114,2.017003 1.58403,3.721943 1.65085,3.788773 0.0668,0.0668 0.57952,-0.11108 1.13932,-0.39533 1.21039,-0.61459 13.24583,-4.584056 18.51394,-6.106165 8.89559,-2.570191 18.00057,-4.512904 23.82393,-5.083269 4.28535,-0.419726 14.79327,-0.165864 17.88489,0.432083 l 2.31951,0.448614 1.12007,-1.030946 c 2.57549,-2.37055 5.58831,-3.969974 9.19736,-4.882625 1.92577,-0.486986 2.71723,-0.545401 5.67912,-0.419153 7.08684,0.302069 12.61542,2.769875 17.59672,7.854692 3.3172,3.386134 4.97178,6.472632 5.73778,10.703399 0.70904,3.91619 -0.14005,9.44672 -2.10242,13.694 l -0.91063,1.97095 0.63653,0.77573 c 0.8814,1.07415 1.53072,2.37164 2.04333,4.08301 0.65225,2.17757 4.04318,77.07163 3.61053,79.74411 -0.70275,4.34084 -3.60448,7.70265 -8.06335,9.34183 -1.49761,0.55056 -26.09272,1.9755 -28.24891,1.63663 -4.16436,-0.65448 -7.66219,-3.54604 -9.25327,-7.64943 -0.42931,-1.10719 -0.6004,-2.30104 -0.72502,-5.05899 l -0.16311,-3.60982 -5.21983,3.77644 c -5.59437,4.04742 -6.88172,4.78202 -9.18228,5.23968 -0.81009,0.16116 -1.50374,0.31013 -1.54144,0.33105 -0.0377,0.0209 0.64435,1.77361 1.51566,3.89489 0.94063,2.29006 1.69935,4.59908 1.86767,5.68391 0.86908,5.60137 -3.04603,11.50995 -8.61088,12.99529 -1.44352,0.3853 -22.16993,2.42024 -24.54167,2.40953 -1.10555,-0.005 -2.47177,-0.20212 -3.23861,-0.46729 z m 14.77867,-10.80544 c 8.73109,-0.83633 10.37309,-1.0598 10.91406,-1.48532 0.35023,-0.27549 0.6341,-0.7006 0.63084,-0.9447 -0.003,-0.2441 -11.23776,-27.52455 -24.96555,-60.62323 -17.9404,-43.25559 -25.11895,-60.285197 -25.5262,-60.555601 -1.50381,-0.998497 0.0983,-3.98853 -29.73722,55.500481 -15.2433,30.39367 -27.7151,55.4382 -27.7151,55.6545 0,0.2163 0.2205,0.66559 0.49,0.99841 l 0.49001,0.60513 13.58514,-0.63343 c 12.80866,-0.59723 13.6188,-0.66416 14.17412,-1.17113 0.32394,-0.29574 5.08451,-10.12223 10.57904,-21.83666 5.49454,-11.71443 9.99825,-21.31386 10.00827,-21.33206 0.0362,-0.0659 11.07045,1.73672 11.15625,1.82253 0.0485,0.0484 5.34561,12.38479 11.77147,27.41411 12.16269,28.44705 11.91505,27.93334 13.33841,27.6695 0.29104,-0.054 5.15395,-0.54109 10.80646,-1.08253 z m -41.45252,-70.48115 c -1.72117,-0.26169 -3.17815,-0.52454 -3.23773,-0.58412 -0.0596,-0.0596 0.86598,-2.58241 2.0568,-5.6063 l 2.16513,-5.49798 1.52102,5.91348 c 0.83656,3.25241 1.52759,6.00277 1.53562,6.11191 0.019,0.25775 -0.30897,0.23041 -4.04084,-0.33699 z m 101.4221,52.9072 c 8.73054,-0.4822 9.70598,-0.58182 10.16457,-1.03803 0.49994,-0.49736 0.48342,-1.04644 -1.14434,-38.02388 -0.90838,-20.63558 -1.75998,-37.78888 -1.89243,-38.11844 -0.13246,-0.32957 -0.52387,-0.72817 -0.8698,-0.88579 -0.64602,-0.29434 -0.41712,-0.38454 -21.28052,8.38518 -1.49566,0.62869 -2.63296,1.00021 -2.52732,0.82561 0.10563,-0.1746 0.7454,-1.03184 1.4217,-1.90496 3.12907,-4.03974 5.4251,-8.06282 6.49303,-11.37708 0.56438,-1.75153 0.63744,-1.84857 1.34563,-1.78727 2.21054,0.19133 6.47157,0.0924 7.60884,-0.17658 2.43531,-0.57608 4.65254,-2.8289 6.40009,-6.50282 1.85279,-3.89517 2.176,-7.65641 0.8891,-10.34647 -0.75191,-1.57176 -3.89289,-4.773544 -5.61428,-5.722974 -4.44626,-2.452327 -9.73231,-2.812097 -13.01884,-0.886064 -2.06212,1.208483 -4.02586,3.977478 -4.90548,6.917028 l -0.32139,1.07402 -2.28834,-1.13086 c -1.25859,-0.62197 -3.3599,-1.45716 -4.66959,-1.85599 -2.36808,-0.72112 -2.42589,-0.7252 -10.45104,-0.73691 -7.30689,-0.0107 -8.38246,0.0456 -11.37709,0.59499 -7.68781,1.41044 -15.04728,3.36519 -26.65666,7.08028 -5.59047,1.789 -7.20716,2.40892 -7.69373,2.95016 -0.34183,0.38024 -0.55272,0.87404 -0.47382,1.10943 0.0782,0.2333 1.26005,3.40076 2.62631,7.03878 1.36625,3.63802 3.24635,8.68929 4.17798,11.22505 0.93163,2.53575 1.91088,4.88724 2.1761,5.22552 0.89347,1.13957 1.84693,0.84266 3.76005,-1.17089 0.93328,-0.98226 1.70443,-1.905 1.71367,-2.05052 0.009,-0.14552 5.07608,14.19357 11.25963,31.86464 6.18355,17.67107 11.37294,32.28599 11.53196,32.4776 0.78715,0.94846 1.73408,0.44604 8.83737,-4.68886 3.8325,-2.77049 7.03362,-5.24341 7.1136,-5.4954 0.08,-0.25198 -1.86818,-7.50559 -4.32922,-16.11915 l -4.47463,-15.66099 2.22331,-2.13088 c 1.22282,-1.17198 3.25114,-3.11137 4.50737,-4.30975 1.25623,-1.19838 3.46061,-3.45523 4.89863,-5.01522 1.43802,-1.56 2.61466,-2.75062 2.61475,-2.64584 9e-5,0.10479 -0.43302,2.3593 -0.96246,5.01003 -0.91398,4.57597 -0.94042,4.8534 -0.52323,5.4901 0.54876,0.83752 1.08581,0.84316 4.52823,0.0475 l 2.64583,-0.61153 0.57346,24.89283 c 0.3154,13.69105 0.58329,25.57743 0.59531,26.41418 0.0168,1.17311 0.14894,1.64843 0.57706,2.07655 0.50762,0.50762 0.75132,0.54113 2.84427,0.39112 1.25899,-0.0902 6.63485,-0.4041 11.94636,-0.69747 z m -43.19253,-71.48539 c -0.99683,-3.60393 -1.39696,-5.45684 -1.22352,-5.66583 0.39239,-0.47279 3.35326,-1.58989 5.15194,-1.94376 1.62006,-0.31873 7.05567,-0.28355 7.38586,0.0478 0.283,0.28399 -1.3526,3.1397 -2.94342,5.13912 -1.92514,2.4196 -6.54548,7.74267 -6.73761,7.76237 -0.0836,0.009 -0.81856,-2.39429 -1.63325,-5.3397 z"
         id="path1165" />
    </g>
    <g
       id="g920"
       transform="matrix(0.8407676,-0.04263876,0.04263876,0.8407676,11.040528,166.80981)"
       style="stroke:#000000;stroke-width:0.79375;stroke-miterlimit:4;stroke-dasharray:none;stroke-opacity:1">
      <path
         style="fill:#fdca02;stroke:#000000;stroke-width:0.79375;stroke-miterlimit:4;stroke-dasharray:none;stroke-opacity:1"
         d="m 80.45309,184.75537 c -2.811698,-2.019 -11.243897,-8.08723 -18.73822,-13.48497 -13.068707,-9.41265 -13.62927,-9.78415 -13.704956,-9.08267 -0.0434,0.40227 0.162457,5.35191 0.457467,10.9992 0.354724,6.79041 0.4494,10.43033 0.279551,10.74769 -0.141256,0.26394 -0.58524,0.54307 -0.986632,0.6203 -0.401394,0.0772 -6.15406,0.22032 -12.783706,0.31798 -11.112584,0.16369 -12.088863,0.1426 -12.501562,-0.2701 -0.246214,-0.24622 -0.448458,-0.64752 -0.449429,-0.89179 -9.71e-4,-0.24426 -0.357365,-7.17115 -0.791983,-15.39308 -0.434618,-8.22192 -0.791012,-15.17259 -0.791983,-15.44593 -0.0011,-0.28732 -0.541268,0.32654 -1.280702,1.45521 -10.6660077,16.2807 -28.141922,22.80073 -42.304086,15.7831 -6.460969,-3.20153 -11.093807,-10.03194 -13.067734,-19.26634 -0.71999,-3.36825 -0.862634,-10.75687 -0.270507,-14.01146 1.379034,-7.57974 4.713097,-12.98946 11.54522,-18.73282 8.031017,-6.7512 16.5051479,-9.74072 24.9996249,-8.81942 6.4515603,0.69974 13.2955801,3.59542 16.9504121,7.17167 l 1.573922,1.54009 -0.0084,-0.83236 c -0.02082,-2.07005 -1.008779,-19.267928 -1.112832,-19.371983 -0.06416,-0.06416 -1.459206,0.18641 -3.100102,0.556818 -2.74843,0.620422 -3.033149,0.640909 -3.614398,0.260057 -0.352118,-0.230714 -0.631018,-0.673807 -0.631095,-1.002628 -2.65e-4,-1.452269 2.481228,-13.052297 2.881,-13.467115 0.462161,-0.479549 26.119786,-11.331476 26.791449,-11.331476 1.245854,0 1.17734,-0.650981 3.023264,28.725227 0.959517,15.26982 1.823903,27.96106 1.920859,28.20275 0.146778,0.36588 1.789041,-0.44743 9.811573,-4.85909 l 9.635289,-5.29853 8.702934,1.30193 8.702935,1.30193 2.226969,-1.78677 c 7.135971,-5.72543 15.739782,-8.69369 25.199568,-8.69369 7.18661,0 13.90137,1.88359 19.43961,5.4531 2.39742,1.54518 4.16678,3.20743 4.16678,3.91452 0,0.36387 -4.58297,6.0378 -12.71336,15.73974 -6.99236,8.34392 -12.66348,15.22066 -12.6025,15.28163 0.061,0.061 0.76896,-0.13536 1.5733,-0.4363 1.71479,-0.64159 4.17859,-2.18567 5.77082,-3.61662 1.46461,-1.31626 3.91854,-4.40315 4.99254,-6.2803 0.85682,-1.49758 1.69158,-2.02775 2.47323,-1.57079 0.20915,0.12227 3.19134,3.61559 6.6271,7.76294 4.90093,5.91599 6.24825,7.70365 6.25347,8.29733 0.0104,1.18798 -1.54431,3.80096 -3.35506,5.63865 -1.78103,1.80753 -4.87551,3.94211 -7.94367,5.47956 -10.23816,5.13032 -24.628282,7.05917 -34.706502,4.65205 -1.220964,-0.29162 -2.282777,-0.46738 -2.359583,-0.39057 -0.0768,0.0768 0.06723,3.6796 0.320082,8.00621 l 0.459724,7.86656 -0.575148,0.46573 c -0.316331,0.25615 -0.732025,0.46573 -0.923764,0.46573 -0.191738,0 -2.649095,-1.65191 -5.460791,-3.6709 z M 72.763415,154.4271 c -0.15667,-0.72749 -0.285692,-3.34677 -0.286711,-5.82063 -0.0019,-4.63396 0.332047,-7.30624 1.388275,-11.10869 0.282373,-1.01655 0.483399,-1.87828 0.446725,-1.91496 -0.105148,-0.10515 -13.772624,10.46085 -13.835902,10.69621 -0.05547,0.20631 12.359863,9.68338 12.500878,9.54237 0.03937,-0.0394 -0.05659,-0.66681 -0.213265,-1.3943 z m 26.529633,-16.79775 c 5.466222,-6.77165 5.827872,-7.28503 5.246872,-7.4481 -1.9096,-0.536 -5.189592,-0.0121 -7.613141,1.21599 -3.38196,1.71377 -5.563198,6.97404 -4.834766,11.65951 0.369544,2.37699 0.511051,2.69298 0.985938,2.20168 0.18932,-0.19587 2.986112,-3.62895 6.215097,-7.62908 z m -98.0973504,4.02157 c 2.8082425,-1.24505 5.4761421,-5.00807 6.5627356,-9.25661 0.8577527,-3.35378 0.7721679,-3.44154 -1.3179954,-1.35137 -2.2868626,2.28686 -4.2105157,3.24465 -6.50562532,3.23916 -3.13190198,-0.007 -4.89012968,-1.81136 -5.31855888,-5.45661 -0.1857587,-1.58053 0.3451119,-3.90016 1.2479231,-5.45275 0.480822,-0.82689 0.4841584,-0.87911 0.045643,-0.71476 -2.6692516,1.00039 -6.2106327,4.27073 -7.5326687,6.95617 -1.083106,2.2001 -1.337003,4.96338 -0.62689,6.82278 0.814358,2.13238 3.673707,4.36616 6.9939501,5.46383 1.9236954,0.63598 4.69562916,0.52863 6.4514865,-0.24984 z m -59.7045256,32.40979 c -0.298963,-0.21861 -4.48415,-11.83151 -11.561614,-32.08073 -6.101168,-17.45595 -11.159341,-31.91628 -11.240387,-32.13408 -0.105382,-0.28318 -0.692765,0.18786 -2.062064,1.65365 -1.963642,2.10201 -2.215883,2.24692 -3.093559,1.7772 -0.762632,-0.40815 -1.078782,-1.15059 -4.601763,-10.80677 -1.785269,-4.893264 -3.620037,-9.828574 -4.077263,-10.967357 -0.948344,-2.36198 -0.984698,-2.633101 -0.427742,-3.190058 0.424536,-0.424536 10.621989,-3.800287 17.58809,-5.822338 7.110666,-2.064013 13.835086,-3.606344 19.314583,-4.430045 3.072993,-0.461945 14.347381,-0.448811 16.801042,0.01957 7.612182,1.453101 13.300842,5.523314 16.476805,11.789089 2.25107,4.441079 1.08883,9.668262 -3.764206,16.929529 -4.118573,6.16234 -9.849836,12.77644 -17.450038,20.138 l -5.295238,5.12898 4.44745,15.57629 c 2.446094,8.56696 4.40418,15.80095 4.351298,16.07555 -0.107223,0.55676 -13.853404,10.66151 -14.524355,10.67678 -0.226849,0.005 -0.623316,-0.14481 -0.881039,-0.33326 z m 5.928405,-63.68653 c 1.063382,-1.23693 2.56458,-3.08725 3.335996,-4.11183 1.36865,-1.81781 2.658729,-4.26444 2.390188,-4.53298 -0.07379,-0.0738 -1.308558,-0.19887 -2.74393,-0.27796 -1.885411,-0.10389 -3.231253,-0.0198 -4.848887,0.30278 -2.458842,0.49042 -5.542409,1.77986 -5.553374,2.32223 -0.0038,0.18955 0.668674,2.80545 1.494459,5.81311 l 1.501429,5.46848 1.245349,-1.36744 c 0.684942,-0.75209 2.115388,-2.37946 3.17877,-3.61639 z m 138.918632,-6.99087 c -0.171756,-0.20695 -1.621215,-2.42856 -3.221019,-4.9369 -2.295027,-3.598392 -2.891903,-4.726398 -2.828964,-5.346338 0.07565,-0.745165 0.789863,-1.179941 13.838102,-8.42394 10.401392,-5.774543 13.945192,-7.622232 14.524172,-7.572692 0.69578,0.05953 1.31787,0.912551 6.80125,9.325946 3.31948,5.093229 6.04072,9.509856 6.04719,9.814722 0.006,0.304869 -0.1966,0.735237 -0.45126,0.956376 -0.4506,0.391282 -32.166502,6.565836 -33.701977,6.561206 -0.382363,-0.001 -0.835734,-0.17142 -1.007494,-0.37838 z"
         id="path932" />
      <path
         style="fill:#3769b9;stroke:#000000;stroke-width:0.79375;stroke-miterlimit:4;stroke-dasharray:none;stroke-opacity:1"
         d="m 82.881537,198.36641 c -2.054641,-0.57171 -3.177924,-1.29776 -13.33617,-8.62001 -5.448713,-3.92753 -9.975374,-7.14097 -10.059249,-7.14097 -0.08387,0 -0.152498,0.52518 -0.152498,1.16706 0,1.43292 -0.770509,3.98386 -1.66366,5.50791 -1.562032,2.6654 -4.816486,4.93261 -7.886497,5.4941 -2.01109,0.36781 -26.765199,0.8123 -28.417551,0.51026 -2.153121,-0.39358 -4.897557,-1.90032 -6.44874,-3.54047 -2.505694,-2.6494 -3.446759,-5.70071 -3.471347,-11.25552 -0.0042,-0.94589 -0.07861,-2.14901 -0.165383,-2.67361 l -0.157774,-0.95382 -2.6841684,1.40177 c -7.55834675,3.94725 -15.3168085,5.62214 -22.8622176,4.93549 -8.355509,-0.76038 -15.630556,-3.95064 -21.163131,-9.28048 l -1.390261,-1.33932 -7.473281,5.4085 c -4.286049,3.10186 -8.093903,5.6599 -8.928489,5.99797 -1.19303,0.48328 -1.979568,0.59084 -4.365625,0.59701 -2.817379,0.007 -2.975941,-0.0238 -4.960096,-0.97122 -2.406637,-1.1492 -4.325109,-2.93477 -5.371195,-4.99913 -0.39488,-0.77925 -4.881171,-13.32614 -9.96954,-27.88197 -5.088367,-14.55584 -9.363324,-26.60153 -9.499904,-26.76821 -0.13658,-0.16668 -0.683215,-0.38463 -1.214746,-0.48435 -1.614081,-0.3028 -4.049227,-1.69904 -5.508713,-3.15853 -1.865831,-1.86583 -2.852283,-4.01695 -6.744371,-14.70719 -1.77487,-4.87495 -3.65003,-9.875575 -4.16703,-11.112502 -2.11203,-5.053053 -1.17351,-10.301892 2.45576,-13.734306 1.84446,-1.744405 3.021285,-2.289542 9.65796,-4.473811 15.171589,-4.993288 26.903995,-7.918949 35.189583,-8.77508 3.284959,-0.339427 11.550791,-0.339789 15.126952,-6.61e-4 8.135361,0.771473 15.649408,4.28609 21.001021,9.823007 3.697709,3.825746 6.134762,7.84984 7.302651,12.058241 0.667989,2.407048 0.784043,6.683569 0.248534,9.158492 -0.183547,0.848284 -0.276958,1.5991 -0.207582,1.66847 0.06937,0.0694 0.850482,-0.0616 1.735797,-0.290964 2.7165271,-0.703924 6.64605,-1.196816 9.5613773,-1.199311 l 2.77812503,-0.0024 0.0641324,-1.652828 C -0.15610629,94.251213 2.527581,81.522397 3.3844235,79.764958 4.2404009,78.009293 6.605289,75.503862 8.1487015,74.717542 9.8674269,73.841907 35.607811,63.087882 36.732171,62.775711 c 1.507709,-0.418605 4.557353,-0.35562 6.215406,0.128368 2.731691,0.797384 5.105115,2.548122 6.588715,4.86011 1.784996,2.781674 1.740265,2.432378 3.172302,24.772926 0.724683,11.305435 1.350914,20.584395 1.391629,20.619925 0.04071,0.0355 1.205116,-0.57066 2.587564,-1.34707 5.103823,-2.8664 6.196483,-2.97395 15.693361,-1.54473 3.469698,0.52217 6.373092,0.88485 6.451986,0.80595 0.0789,-0.0789 -0.206399,-0.59542 -0.633987,-1.14783 -1.69377,-2.18823 -7.323058,-11.359132 -7.792744,-12.695476 -1.52855,-4.348999 -0.497408,-8.820633 2.801229,-12.14777 1.447517,-1.460024 2.973046,-2.375816 15.62703,-9.381084 7.712604,-4.269712 14.677758,-8.024453 15.478128,-8.34387 4.20143,-1.676745 9.27427,-0.612389 12.42045,2.605994 2.06962,2.117117 13.90991,20.518195 14.57278,22.647665 1.14983,3.69379 0.45014,7.704661 -1.88143,10.785091 -0.72887,0.96298 -1.28963,1.76663 -1.24612,1.78588 3.63904,1.61051 8.15275,4.5227 10.78001,6.95515 1.41487,1.30994 2.09654,2.20214 2.85492,3.73662 0.98534,1.99371 0.99626,2.05075 0.99626,5.20452 0,3.04843 -0.0371,3.26439 -0.8432,4.90852 -0.5272,1.07529 -2.28718,3.44493 -4.69635,6.3232 -2.11924,2.53188 -3.85316,4.68332 -3.85316,4.78099 0,0.0977 2.26375,2.90769 5.03055,6.2445 2.97108,3.58317 5.35352,6.71685 5.81944,7.65443 1.85552,3.73392 1.71443,7.01716 -0.50027,11.64167 -3.48462,7.27623 -11.93607,13.5129 -23.44659,17.30221 -6.60904,2.17572 -13.97431,3.46758 -19.76971,3.46758 h -2.852167 v 2.78648 c 0,4.1274 -1.010213,6.74869 -3.553439,9.22042 -2.886284,2.80515 -7.480929,4.01276 -11.263227,2.96033 z m 4.398433,-10.73389 c 0.284401,-0.62466 0.140287,-4.34388 -0.539361,-13.9197 l -0.152294,-2.14574 2.565156,0.62013 c 13.494379,3.26231 33.818419,-1.5187 42.379439,-9.96931 2.40551,-2.37449 4.09267,-5.46888 3.58515,-6.57545 -0.52384,-1.14217 -12.43896,-15.35353 -13.01204,-15.51969 -1.15724,-0.33554 -1.75502,0.10983 -3.17693,2.36692 -2.62084,4.16024 -6.46334,7.65316 -9.78718,8.89676 -0.80252,0.30027 -1.48728,0.51198 -1.52169,0.47049 -0.0344,-0.0415 5.5786,-6.80246 12.47336,-15.02436 6.89475,-8.2219 12.6066,-15.1716 12.69298,-15.44378 0.22157,-0.69809 -0.56479,-1.66087 -2.64264,-3.23554 -3.57455,-2.70893 -8.48041,-4.84182 -13.74274,-5.97485 -3.56656,-0.76792 -10.96897,-0.8328 -14.60193,-0.12799 -7.065542,1.37074 -13.460105,4.32977 -18.574464,8.59518 l -1.641126,1.36871 -8.652766,-1.30568 -8.65277,-1.30567 -1.21548,0.62383 c -0.668514,0.34311 -5.025482,2.71903 -9.682149,5.27982 -5.191839,2.85509 -8.492347,4.52627 -8.533064,4.32064 -0.09271,-0.46827 -3.505478,-53.92185 -3.505478,-54.905736 0,-1.026505 -0.775253,-1.984886 -1.603488,-1.98226 -0.747059,0.0024 -26.346926,10.703205 -26.87941,11.23569 -0.195369,0.195367 -0.959321,3.365601 -1.697675,7.044965 -1.754164,8.74135 -1.8007757,8.64565 3.606088,7.403653 1.373261,-0.315449 2.539876,-0.523809 2.592475,-0.46302 0.102976,0.119006 0.976196,16.896438 0.968126,18.600888 l -0.0049,1.02787 -0.53299,-0.67758 c -2.197222,-2.79332 -9.8102369,-6.51458 -15.27846,-7.46816 -2.61811033,-0.45656 -8.0056938,-0.51559 -10.2675611,-0.11251 -6.3146759,1.12535 -12.5334659,4.38779 -18.5194419,9.7155 -7.613763,6.77649 -10.743401,13.7132 -10.770057,23.87139 -0.02193,8.36061 2.156962,15.46099 6.524228,21.26043 6.894332,9.15524 20.6099936,11.53333 32.8818792,5.70124 6.0026021,-2.85268 11.8917588,-8.13621 16.4548428,-14.76269 0.78618,-1.14168 1.393957,-1.80269 1.459653,-1.5875 0.06191,0.2028 0.445045,7.14577 0.851408,15.42881 0.698757,14.24303 0.76835,15.09435 1.282774,15.69171 l 0.543933,0.63163 12.446466,-0.26689 c 6.845554,-0.14679 12.65088,-0.34533 12.900721,-0.44121 0.24984,-0.0959 0.533783,-0.4886 0.630983,-0.87273 0.0972,-0.38413 -0.06218,-5.46092 -0.35419,-11.28175 -0.292002,-5.82084 -0.51009,-10.61448 -0.484637,-10.65254 0.02545,-0.0381 8.369356,5.93954 18.542008,13.28354 16.662763,12.02945 18.587318,13.34734 19.419895,13.29836 0.700334,-0.0412 0.997101,-0.21457 1.225312,-0.71582 z M 66.690479,151.02188 c -3.30253,-2.49264 -6.011201,-4.60409 -6.019271,-4.69211 -0.01518,-0.16557 13.069154,-10.29101 13.298286,-10.29101 0.07095,0 -0.04318,0.56555 -0.253627,1.25678 -1.251111,4.10932 -1.833546,12.45672 -1.157306,16.58631 0.141513,0.86416 0.230119,1.59391 0.196906,1.62165 -0.03321,0.0277 -2.762459,-1.98898 -6.064988,-4.48162 z m 25.855781,-6.16793 c -0.387395,-0.95458 -0.476932,-5.02789 -0.14212,-6.46536 0.479247,-2.05759 2.030394,-4.87853 3.262423,-5.9331 1.584058,-1.35589 3.607578,-2.05011 6.356757,-2.18082 1.2874,-0.0612 2.4339,-0.01 2.54777,0.11442 0.15639,0.1705 -10.206449,13.3224 -11.577432,14.69339 -0.159975,0.15997 -0.323662,0.0764 -0.447398,-0.22853 z m -98.3801077,-3.37359 c -3.9613919,-1.62891 -5.9793483,-3.51851 -6.5683813,-6.15059 -0.828469,-3.70199 1.584108,-8.19697 5.9735557,-11.12961 1.1462385,-0.76582 2.1324781,-1.34399 2.191639,-1.28483 0.059163,0.0592 -0.1594194,0.62513 -0.485738,1.25769 -0.8152818,1.58042 -1.0044403,4.92749 -0.3840374,6.79535 0.7912656,2.38227 2.8632071,3.63803 5.66482176,3.43333 2.04621874,-0.14951 3.79425464,-1.07872 5.87958674,-3.12544 l 1.7522401,-1.71979 -0.3337242,1.71979 c -0.9493435,4.89231 -3.4620835,8.64305 -6.8458159,10.21868 -1.8703317,0.87092 -4.7053712,0.86488 -6.8441465,-0.0146 z M -50.20388,169.51584 c 3.710781,-2.68058 6.903207,-5.14804 7.094278,-5.48324 0.310145,-0.54409 -0.131167,-2.28697 -4.114739,-16.25037 l -4.462145,-15.64092 6.269495,-6.18721 c 6.578852,-6.49251 9.713712,-10.01013 14.006436,-15.71659 5.286198,-7.02713 7.273242,-11.405134 7.263241,-16.002915 -0.0045,-2.062663 -0.08686,-2.413339 -0.994431,-4.233334 -2.879167,-5.773737 -7.444989,-9.451499 -14.34651,-11.556089 -2.369947,-0.722705 -2.419554,-0.726199 -10.451042,-0.735914 -6.714043,-0.0081 -8.514299,0.07167 -10.715625,0.474938 -8.100184,1.483905 -15.800681,3.515294 -26.962484,7.112698 -6.316072,2.035644 -7.735779,2.58259 -8.152531,3.140784 l -0.50463,0.675898 1.0688,2.682738 c 0.587839,1.475507 2.072846,5.45547 3.300014,8.844366 4.717557,13.02779 4.661605,12.9085 6.054498,12.9085 0.629446,0 1.132737,-0.37252 2.564888,-1.89842 l 1.781778,-1.89842 0.535333,1.56769 c 3.724906,10.90816 21.89015,62.50626 22.092213,62.75259 0.149209,0.1819 0.643665,0.32764 1.098788,0.32387 0.647332,-0.005 2.296469,-1.06802 7.574375,-4.88065 z m -8.180835,-59.86818 c -0.785098,-2.87463 -1.438478,-5.34567 -1.451956,-5.49119 -0.03986,-0.43048 2.738054,-1.66532 4.791495,-2.1299 1.90872,-0.43184 7.482216,-0.47896 7.892926,-0.0667 0.293473,0.29456 -0.800113,2.29357 -2.452153,4.4824 -1.536729,2.03605 -6.862884,8.23983 -7.181458,8.36479 -0.09427,0.037 -0.813753,-2.28475 -1.598854,-5.15938 z M 104.28934,100.8585 c 9.31535,-1.780559 16.65502,-3.306591 16.83879,-3.501057 0.924,-0.977734 0.79537,-1.2358 -5.32724,-10.687402 -3.2908,-5.080069 -6.17304,-9.385317 -6.405,-9.567218 -0.23196,-0.181901 -0.62259,-0.33073 -0.86807,-0.33073 -0.46853,0 -27.225703,14.730186 -28.069404,15.452586 -0.268012,0.229481 -0.487296,0.675958 -0.487296,0.992172 0,0.50976 5.263597,9.161249 6.293511,10.344309 0.221697,0.25466 0.652524,0.46092 0.957393,0.45834 0.304866,-0.003 7.985162,-1.42502 17.067316,-3.161 z"
         id="path922" />
    </g>
  </g>
</svg>
